<?xml version="1.0" standalone="no"?>
<!DOCTYPE svg PUBLIC "-//W3C//DTD SVG 20010904//EN"
 "http://www.w3.org/TR/2001/REC-SVG-20010904/DTD/svg10.dtd">
<svg version="1.0" xmlns="http://www.w3.org/2000/svg"
 width="646.000000pt" height="538.000000pt" viewBox="0 0 646.000000 538.000000"
 preserveAspectRatio="xMidYMid meet">

<g transform="translate(0.000000,538.000000) scale(0.100000,-0.100000)"
fill="#000000" stroke="none">
<path d="M0 2690 l0 -2690 3230 0 3230 0 0 2690 0 2690 -3230 0 -3230 0 0
-2690z m3582 1350 c131 -13 339 -51 333 -61 -5 -7 19 -19 38 -18 7 0 3 5 -8
10 -17 8 -17 9 5 4 14 -2 32 -5 40 -5 10 0 11 -3 3 -8 -6 -4 9 -7 33 -8 26 -1
52 -8 62 -17 10 -10 21 -14 24 -11 11 10 148 -39 148 -53 0 -7 5 -13 10 -13 6
0 10 -6 10 -14 0 -9 7 -12 20 -9 11 3 27 0 35 -7 8 -6 19 -9 25 -5 6 4 20 -1
31 -11 14 -12 22 -15 27 -7 5 7 25 2 62 -18 64 -32 63 -34 -4 -14 -27 8 -51
13 -54 10 -3 -2 4 -7 14 -11 41 -13 129 -49 134 -54 15 -16 123 -59 132 -54 7
5 8 2 4 -5 -5 -7 -14 -10 -21 -7 -8 3 -11 -2 -8 -15 3 -10 9 -17 13 -14 4 3 7
-3 6 -13 0 -9 6 -17 14 -17 8 0 20 -9 27 -20 7 -11 12 -16 13 -11 0 6 7 1 16
-10 8 -10 12 -13 9 -6 -5 10 0 12 21 9 51 -9 64 -18 64 -46 0 -18 3 -22 9 -13
14 23 71 -9 116 -63 38 -47 34 -52 -10 -15 -11 10 -33 25 -50 34 -26 15 -27
16 -5 10 20 -5 23 -4 13 7 -15 15 -57 23 -48 9 13 -21 -15 -9 -48 20 -35 30
-57 38 -57 20 0 -5 4 -10 9 -10 11 0 77 -63 74 -72 -2 -4 19 -17 45 -29 26
-12 55 -25 64 -30 10 -5 24 -9 31 -9 8 0 22 -9 32 -20 18 -20 18 -21 -1 -14
-19 7 -19 7 0 -14 11 -13 14 -22 7 -22 -7 0 -19 13 -28 29 -10 16 -32 34 -52
41 -20 7 -54 24 -76 38 -22 14 -51 27 -64 28 l-24 3 24 -17 c13 -9 26 -17 29
-17 5 0 46 -35 120 -105 19 -18 10 -12 -20 12 -74 60 -217 158 -232 159 -10 0
-10 2 0 6 7 3 21 -2 31 -11 10 -9 36 -18 57 -20 31 -2 35 -1 19 8 -10 6 -34
26 -54 44 -19 17 -46 32 -59 32 -13 0 -21 4 -18 8 2 4 -10 6 -28 4 -21 -2 -37
2 -45 12 -8 10 -9 16 -3 16 6 0 14 -4 17 -10 6 -10 45 -14 45 -5 0 11 -44 65
-52 65 -4 0 -8 -7 -8 -17 0 -15 -1 -15 -18 0 -10 10 -21 14 -25 11 -9 -9 -48
6 -42 17 4 5 1 9 -4 9 -6 0 -11 -4 -11 -10 0 -5 -8 -6 -17 -3 -16 6 -17 5 -3
-13 14 -18 14 -18 -5 -2 -25 21 -73 39 -77 30 -2 -4 -11 0 -21 10 -17 18 -16
18 9 12 19 -5 25 -4 20 5 -11 17 5 13 27 -6 19 -17 20 -17 14 0 -8 21 8 22 43
2 14 -8 32 -14 40 -14 13 1 13 1 0 6 -8 3 -22 11 -30 18 -19 16 -120 27 -120
13 0 -7 -17 -8 -42 -5 -24 3 -35 3 -25 0 9 -2 17 -9 17 -14 0 -6 -7 -6 -17 -1
-24 13 -109 49 -153 66 -8 4 0 4 18 1 18 -2 31 -1 27 4 -3 5 1 11 7 14 7 3 -4
4 -24 2 -21 -1 -38 2 -38 6 0 5 7 9 15 9 8 0 15 5 15 10 0 6 -7 10 -16 10 -10
0 -14 6 -11 14 3 8 -1 17 -9 20 -9 3 -12 11 -8 17 4 7 3 9 -4 6 -14 -9 -43 3
-36 14 3 5 -2 6 -10 3 -9 -3 -13 -11 -10 -16 4 -6 -2 -7 -17 -3 -17 5 -21 4
-14 -3 6 -6 26 -12 45 -15 21 -2 34 -9 32 -16 -1 -7 2 -10 7 -7 5 4 9 -3 8
-14 -1 -22 -35 -28 -54 -9 -8 8 -13 7 -18 -2 -5 -7 -4 -10 2 -6 6 4 13 0 17
-8 4 -12 -3 -11 -34 5 -24 12 -41 16 -45 10 -3 -6 1 -13 10 -16 13 -5 14 -9 4
-15 -10 -6 -7 -10 10 -17 14 -5 20 -12 14 -15 -6 -4 -26 1 -46 11 -33 16 -34
19 -21 36 11 16 11 22 1 28 -8 5 -8 8 0 8 17 0 3 39 -17 45 -10 3 -24 13 -32
22 -11 15 -11 16 7 10 16 -6 15 -3 -5 12 -13 11 -28 17 -32 15 -7 -5 -2 -13
28 -47 6 -7 14 -22 18 -34 6 -19 3 -20 -44 -19 -27 0 -50 5 -50 10 0 4 -12 5
-26 2 -18 -5 -32 -2 -45 10 -11 10 -22 14 -26 11 -3 -4 -12 2 -20 13 -17 24
-65 27 -83 5 -6 -8 -15 -14 -18 -13 -20 2 -25 -4 -12 -13 11 -8 7 -9 -17 -5
-20 3 -43 -1 -60 -10 -28 -16 -11 -15 32 1 13 5 17 5 10 -2 -5 -6 -24 -15 -42
-21 -25 -8 -34 -8 -44 4 -9 11 -8 14 2 14 21 1 -21 30 -43 30 -10 0 -18 -7
-18 -15 0 -8 8 -15 18 -15 31 0 41 -18 29 -51 -11 -28 -27 -39 -27 -18 0 5 -5
7 -12 3 -6 -4 -8 -3 -5 4 12 19 -3 42 -21 33 -19 -9 -42 -4 -42 10 0 5 8 9 17
9 24 0 10 10 -23 16 -15 3 -31 7 -35 10 -4 2 -34 7 -66 10 -32 2 -65 7 -74 9
-8 3 -24 -2 -35 -10 -18 -14 -17 -15 10 -9 19 5 27 3 22 -4 -3 -6 0 -13 6 -15
9 -4 8 -6 -2 -6 -8 -1 -27 6 -42 13 -16 8 -28 11 -28 5 0 -12 -57 -12 -81 1
-15 8 -21 7 -25 -4 -4 -12 -11 -13 -31 -5 -20 7 -30 6 -44 -7 -11 -10 -19 -12
-19 -6 0 6 6 13 13 16 6 4 1 4 -13 1 -14 -2 -33 -5 -43 -5 -12 0 -16 -5 -11
-12 6 -10 4 -10 -7 0 -15 14 -33 16 -24 3 9 -15 -11 -22 -58 -21 -23 0 -50 1
-59 1 -22 0 -22 8 -1 38 11 16 12 21 3 16 -8 -5 -25 -9 -39 -10 -14 -1 -37 -5
-51 -9 -23 -6 -23 -6 3 9 16 9 34 14 41 12 7 -3 13 1 13 9 0 10 -7 12 -21 8
-27 -8 -195 -73 -221 -85 -11 -5 -45 -15 -75 -23 -50 -13 -52 -15 -20 -16 l35
-1 -35 -19 c-37 -20 -65 -27 -40 -9 13 9 13 10 0 5 -8 -3 -23 -9 -32 -12 -10
-4 -18 -11 -18 -16 0 -6 7 -7 16 -4 9 4 13 2 8 -5 -3 -6 -22 -9 -40 -7 -19 2
-35 1 -36 -2 -2 -4 -16 -10 -33 -14 l-30 -8 25 28 25 27 -33 -19 c-34 -19 -81
-74 -65 -74 5 0 14 5 19 10 7 7 18 7 35 0 l24 -11 -24 5 c-14 3 -31 0 -38 -5
-19 -16 -32 -2 -28 30 l3 29 -51 -14 c-29 -7 -79 -26 -112 -42 -33 -16 -71
-33 -84 -37 -18 -5 -20 -9 -10 -16 8 -5 9 -9 3 -9 -27 0 -164 -107 -164 -128
0 -6 -16 -14 -35 -18 -19 -3 -38 -10 -41 -15 -3 -5 -16 -9 -30 -9 -14 0 -24
-6 -24 -14 0 -8 -7 -17 -16 -20 -8 -3 -13 -10 -10 -14 6 -11 -63 -88 -75 -84
-5 1 -9 -3 -9 -9 0 -5 -5 -7 -12 -3 -6 4 -8 3 -5 -3 3 -5 -34 -50 -84 -99 -49
-48 -89 -95 -89 -102 0 -9 -7 -12 -19 -9 -14 3 -18 1 -14 -9 3 -8 10 -11 17
-8 6 4 -15 -20 -46 -52 -32 -33 -74 -79 -94 -104 -73 -91 -70 -79 9 40 77 116
137 191 148 185 5 -4 9 1 9 9 0 9 5 16 11 16 5 0 7 4 4 10 -3 5 65 81 152 169
312 313 632 510 1053 650 197 65 417 108 630 124 107 8 357 6 452 -3z m-293
-236 c14 -12 -19 -1 -35 12 -18 14 -18 14 6 3 14 -6 27 -13 29 -15z m403 12
c7 4 8 2 4 -4 -4 -6 -13 -9 -21 -6 -8 4 -12 11 -8 17 5 8 8 7 11 -1 2 -7 9 -9
14 -6z m67 5 c7 -5 9 -11 5 -14 -5 -3 -15 1 -22 9 -14 16 -5 18 17 5z m-109
-27 c0 -2 -9 -4 -21 -4 -11 0 -18 4 -14 10 5 8 35 3 35 -6z m-555 -15 c-16 -5
-64 -17 -105 -27 -49 -12 -74 -22 -72 -31 1 -7 -2 -9 -8 -6 -6 4 -21 -1 -33
-12 l-22 -18 20 24 c20 23 93 66 101 58 2 -2 30 2 61 9 67 14 102 16 58 3z
m95 -5 c0 -2 -7 -4 -15 -4 -8 0 -15 4 -15 10 0 5 7 7 15 4 8 -4 15 -8 15 -10z
m415 6 c4 -6 11 -7 17 -4 7 4 8 2 4 -4 -5 -9 -13 -9 -27 -2 -10 6 -19 13 -19
15 0 9 19 5 25 -5z m82 3 c-4 -3 1 -12 11 -20 15 -13 15 -13 -6 -3 -19 9 -23
30 -5 30 4 0 3 -3 0 -7z m251 -3 c-2 -32 17 -42 25 -12 4 14 5 14 6 1 2 -34
-23 -39 -51 -11 l-26 27 23 0 c13 0 23 -2 23 -5z m-1148 -15 c0 -7 -80 -46
-114 -56 -46 -13 -18 6 49 34 33 14 61 26 63 26 1 1 2 -1 2 -4z m375 -13 c-3
-3 -11 0 -18 7 -9 10 -8 11 6 5 10 -3 15 -9 12 -12z m290 8 c-3 -5 -11 -10
-16 -10 -6 0 -7 5 -4 10 3 6 11 10 16 10 6 0 7 -4 4 -10z m95 -2 c0 -4 -4 -8
-9 -8 -6 0 -12 4 -15 8 -3 5 1 9 9 9 8 0 15 -4 15 -9z m-1050 -8 c-8 -5 -19
-10 -25 -10 -5 0 -3 5 5 10 8 5 20 10 25 10 6 0 3 -5 -5 -10z m1383 3 c-7 -2
-21 -2 -30 0 -10 3 -4 5 12 5 17 0 24 -2 18 -5z m272 -3 c-3 -5 -10 -10 -16
-10 -5 0 -9 5 -9 10 0 6 7 10 16 10 8 0 12 -4 9 -10z m-500 -10 c3 -6 -1 -7
-9 -4 -18 7 -21 14 -7 14 6 0 13 -4 16 -10z m-575 -15 c0 -7 -30 -13 -34 -7
-3 4 4 9 15 9 10 1 19 0 19 -2z m1560 -21 c0 -2 -9 0 -20 6 -11 6 -20 13 -20
16 0 2 9 0 20 -6 11 -6 20 -13 20 -16z m-1333 10 c-3 -3 -12 -4 -19 -1 -8 3
-5 6 6 6 11 1 17 -2 13 -5z m-1207 -94 c-8 -5 -17 -7 -19 -4 -3 3 1 9 9 14 8
5 17 7 19 4 3 -3 -1 -9 -9 -14z m170 11 c-14 -4 -24 -13 -22 -19 1 -7 -8 -12
-20 -12 -20 0 -21 1 -3 20 10 11 30 20 44 19 l26 -1 -25 -7z m2520 -17 c0 -2
-9 0 -20 6 -11 6 -20 13 -20 16 0 2 9 0 20 -6 11 -6 20 -13 20 -16z m-23 -5
c23 -11 46 -26 49 -31 4 -6 3 -9 -2 -6 -5 3 -30 15 -56 27 -27 12 -48 24 -48
26 0 9 13 5 57 -16z m-2693 4 c4 -5 13 -8 19 -8 25 0 16 -25 -15 -40 l-33 -16
24 21 c17 15 19 20 8 20 -9 0 -19 -5 -23 -11 -5 -8 -8 -8 -14 0 -5 9 -10 7
-20 -4 -11 -13 -10 -15 4 -9 10 4 16 1 16 -7 0 -8 -11 -15 -25 -15 -16 -1 -23
2 -19 10 3 6 0 4 -8 -5 -15 -19 -52 -39 -69 -39 -7 0 7 14 32 32 24 18 46 35
49 38 8 10 54 40 61 40 3 0 9 -3 13 -7z m2525 -26 c0 -9 -2 -9 -5 0 -3 7 -13
9 -22 6 -14 -4 -14 -3 -2 5 16 12 30 7 29 -11z m306 -52 c23 -20 18 -19 -17 6
-27 18 -48 34 -48 36 0 7 35 -16 65 -42z m-220 -15 c3 -5 1 -10 -4 -10 -6 0
-11 5 -11 10 0 6 2 10 4 10 3 0 8 -4 11 -10z m60 -20 c8 -13 -5 -13 -25 0 -13
8 -13 10 2 10 9 0 20 -4 23 -10z m240 -30 c3 -5 1 -10 -4 -10 -6 0 -11 5 -11
10 0 6 2 10 4 10 3 0 8 -4 11 -10z m-65 -40 c8 -5 11 -10 5 -10 -5 0 -17 5
-25 10 -8 5 -10 10 -5 10 6 0 17 -5 25 -10z m166 -41 c11 -19 -29 7 -51 32
l-20 23 32 -23 c18 -12 35 -27 39 -32z m-11 -25 c20 -8 35 -17 32 -20 -6 -6
-77 22 -77 30 0 8 4 8 45 -10z m79 -46 c-3 -4 0 -8 7 -8 29 0 270 -277 366
-420 65 -98 153 -245 153 -256 0 -5 -32 40 -71 99 -39 59 -75 107 -80 107 -5
0 -9 9 -9 20 0 11 -7 20 -15 20 -8 0 -15 5 -15 11 0 5 5 7 12 3 7 -4 8 -3 4 5
-4 6 -12 9 -17 5 -6 -3 -13 3 -16 15 -3 12 -9 21 -13 21 -4 0 -11 7 -14 16 -3
8 -2 12 4 9 6 -3 10 -1 10 4 0 6 -6 11 -12 11 -7 1 -31 24 -53 51 -22 28 -50
55 -63 60 -13 5 -20 13 -17 19 3 5 2 10 -3 10 -6 0 -12 -7 -15 -14 -5 -12 -13
-8 -37 14 -17 16 -35 29 -38 28 -13 -4 -52 13 -52 23 0 11 14 12 24 2 4 -5 11
-8 14 -8 4 -1 18 -7 32 -14 22 -13 24 -13 12 1 -7 9 -29 24 -48 33 -20 9 -32
21 -28 27 4 7 2 8 -4 4 -14 -8 -52 14 -52 31 0 6 -5 15 -12 19 -8 5 -9 2 -5
-9 8 -20 -6 -22 -22 -4 -8 10 -7 17 1 25 14 14 48 -2 48 -22 0 -8 11 -16 25
-18 33 -7 32 -1 -12 39 l-38 34 35 -16 35 -17 -29 24 c-25 21 -26 24 -8 24 11
0 18 -4 16 -8z m-3714 -141 c0 -2 -10 -12 -22 -23 l-23 -19 19 23 c18 21 26
27 26 19z m-102 -127 c-7 -11 -16 -20 -20 -20 -5 0 -3 9 4 20 7 11 16 20 20
20 5 0 3 -9 -4 -20z m3969 3 c0 -8 -6 -9 -19 -2 -10 5 -18 11 -18 12 0 2 8 3
18 3 10 0 19 -6 19 -13z m88 -43 c17 -19 23 -29 14 -22 -9 6 -18 9 -22 6 -3
-3 -13 8 -21 25 -17 31 -21 52 -8 36 4 -6 21 -26 37 -45z m-4095 -20 c0 -5 -5
-10 -11 -10 -5 0 -7 5 -4 10 3 6 8 10 11 10 2 0 4 -4 4 -10z m-70 -73 c0 -2
-15 -16 -32 -33 l-33 -29 29 33 c28 30 36 37 36 29z m4475 -328 c9 -17 14 -33
11 -36 -4 -4 -36 49 -36 62 0 13 11 2 25 -26z m33 -74 c-3 -3 -9 2 -12 12 -6
14 -5 15 5 6 7 -7 10 -15 7 -18z m36 -71 c3 -8 2 -12 -4 -9 -6 3 -10 10 -10
16 0 14 7 11 14 -7z"/>
<path d="M3598 4003 c7 -3 16 -2 19 1 4 3 -2 6 -13 5 -11 0 -14 -3 -6 -6z"/>
<path d="M3635 3990 c3 -5 21 -10 38 -9 31 1 31 1 7 9 -36 11 -52 11 -45 0z"/>
<path d="M3503 3963 c9 -2 23 -2 30 0 6 3 -1 5 -18 5 -16 0 -22 -2 -12 -5z"/>
<path d="M2947 3953 c-3 -5 -4 -19 -2 -32 2 -28 19 -39 31 -20 5 8 3 10 -7 5
-8 -4 -3 2 11 15 l25 22 -28 -5 c-22 -4 -25 -3 -16 8 8 10 8 14 1 14 -6 0 -13
-3 -15 -7z"/>
<path d="M3258 3953 c7 -3 16 -2 19 1 4 3 -2 6 -13 5 -11 0 -14 -3 -6 -6z"/>
<path d="M3341 3951 c-11 -7 -10 -10 5 -14 34 -10 137 -27 158 -26 18 1 18 2
-4 9 -14 5 17 6 70 3 112 -7 119 2 10 12 -41 3 -93 10 -115 15 -51 12 -106 12
-124 1z m128 -17 c11 -10 -8 -10 -49 2 l-45 13 45 -5 c25 -4 47 -8 49 -10z"/>
<path d="M3583 3953 c9 -2 23 -2 30 0 6 3 -1 5 -18 5 -16 0 -22 -2 -12 -5z"/>
<path d="M3658 3948 c5 -5 16 -8 23 -6 8 3 3 7 -10 11 -17 4 -21 3 -13 -5z"/>
<path d="M3875 3920 c10 -11 20 -20 23 -20 3 0 -3 9 -13 20 -10 11 -20 20 -23
20 -3 0 3 -9 13 -20z"/>
<path d="M4062 3914 c9 -9 21 -15 27 -13 6 2 -2 10 -17 17 -25 11 -25 11 -10
-4z"/>
<path d="M2840 3904 l-25 -15 25 7 c14 3 29 10 35 15 15 14 -7 10 -35 -7z"/>
<path d="M3275 3911 c-3 -5 -2 -12 3 -15 5 -3 9 1 9 9 0 17 -3 19 -12 6z"/>
<path d="M2896 3894 c-5 -14 -4 -15 9 -4 17 14 19 20 6 20 -5 0 -12 -7 -15
-16z"/>
<path d="M3060 3905 c0 -8 52 -27 85 -31 l30 -3 -25 13 c-14 8 -28 12 -32 10
-3 -2 -9 0 -13 6 -6 10 -45 14 -45 5z"/>
<path d="M3010 3890 c-9 -6 -10 -10 -3 -10 6 0 15 5 18 10 8 12 4 12 -15 0z"/>
<path d="M3039 3888 c-1 -7 -1 -17 0 -22 2 -8 -25 -5 -76 10 -15 4 -23 2 -23
-6 0 -7 7 -10 15 -7 8 4 17 2 20 -3 3 -5 -3 -10 -12 -13 -10 -2 24 -2 76 -1
52 2 96 6 99 9 3 3 -4 5 -16 5 -11 0 -24 5 -27 10 -4 6 -10 8 -15 5 -5 -3 -16
2 -24 11 -12 12 -16 12 -17 2z"/>
<path d="M3428 3893 c12 -2 32 -2 45 0 12 2 2 4 -23 4 -25 0 -35 -2 -22 -4z"/>
<path d="M3195 3880 c-3 -5 1 -10 10 -10 9 0 13 5 10 10 -3 6 -8 10 -10 10 -2
0 -7 -4 -10 -10z"/>
<path d="M3378 3883 c7 -3 16 -2 19 1 4 3 -2 6 -13 5 -11 0 -14 -3 -6 -6z"/>
<path d="M3495 3880 c-3 -5 -16 -10 -28 -11 -18 0 -16 -3 12 -15 33 -15 58
-11 32 5 -11 7 -9 11 5 20 17 9 17 10 2 11 -9 0 -20 -4 -23 -10z"/>
<path d="M2758 3873 c7 -3 16 -2 19 1 4 3 -2 6 -13 5 -11 0 -14 -3 -6 -6z"/>
<path d="M2910 3864 c0 -9 -5 -12 -12 -8 -7 4 -5 -1 4 -12 15 -15 20 -16 30
-5 11 11 11 14 0 18 -6 3 -10 9 -6 14 3 5 0 9 -5 9 -6 0 -11 -7 -11 -16z"/>
<path d="M4035 3869 c-4 -6 -4 -13 -1 -16 3 -4 6 -1 6 6 0 7 9 9 24 5 13 -3
27 -1 30 5 5 7 -4 11 -23 11 -16 0 -33 -5 -36 -11z"/>
<path d="M2780 3860 c-9 -6 -10 -10 -3 -10 6 0 15 5 18 10 8 12 4 12 -15 0z"/>
<path d="M4235 3860 c3 -5 8 -10 11 -10 2 0 4 5 4 10 0 6 -5 10 -11 10 -5 0
-7 -4 -4 -10z"/>
<path d="M3158 3853 c7 -3 16 -2 19 1 4 3 -2 6 -13 5 -11 0 -14 -3 -6 -6z"/>
<path d="M2870 3840 c0 -5 5 -10 11 -10 5 0 7 5 4 10 -3 6 -8 10 -11 10 -2 0
-4 -4 -4 -10z"/>
<path d="M2260 3754 c-19 -9 -42 -17 -52 -19 -9 -2 -34 -16 -56 -32 -29 -22
-36 -31 -27 -40 9 -8 18 -6 36 8 15 12 17 17 7 13 -28 -10 -21 2 14 27 22 16
30 18 26 8 -6 -17 28 -24 37 -8 4 5 0 9 -7 9 -7 1 0 8 15 16 16 9 35 13 43 10
8 -3 14 1 14 9 0 18 -6 18 -50 -1z"/>
<path d="M4005 3750 c-3 -5 -1 -10 4 -10 6 0 11 5 11 10 0 6 -2 10 -4 10 -3 0
-8 -4 -11 -10z"/>
<path d="M4281 3721 c-7 -5 -9 -11 -5 -14 5 -3 15 1 22 9 14 16 5 18 -17 5z"/>
<path d="M2245 3690 c-3 -6 1 -7 9 -4 18 7 21 14 7 14 -6 0 -13 -4 -16 -10z"/>
<path d="M4585 3680 c3 -5 8 -10 11 -10 2 0 4 5 4 10 0 6 -5 10 -11 10 -5 0
-7 -4 -4 -10z"/>
<path d="M4615 3670 c3 -5 8 -10 11 -10 2 0 4 5 4 10 0 6 -5 10 -11 10 -5 0
-7 -4 -4 -10z"/>
<path d="M4810 3546 c0 -2 7 -9 15 -16 9 -7 15 -8 15 -2 0 5 -7 12 -15 16 -8
3 -15 4 -15 2z"/>
<path d="M1614 3419 c-19 -22 -19 -22 3 -10 24 12 39 31 25 31 -5 0 -17 -10
-28 -21z"/>
<path d="M1370 3163 c-25 -25 -39 -44 -31 -41 13 4 89 88 80 88 -3 0 -24 -21
-49 -47z"/>
<path d="M1249 3043 c-13 -16 -12 -17 4 -4 9 7 17 15 17 17 0 8 -8 3 -21 -13z"/>
<path d="M1220 2975 c-7 -8 -16 -13 -20 -10 -5 3 -11 1 -14 -4 -14 -22 13 -18
34 4 13 14 21 25 18 25 -3 0 -11 -7 -18 -15z"/>
<path d="M5240 3191 c0 -6 7 -14 16 -19 8 -5 16 -16 18 -25 1 -9 6 -20 11 -24
4 -4 5 -2 0 6 -6 10 -2 12 16 6 l24 -7 -25 27 c-30 32 -60 50 -60 36z"/>
</g>
</svg>
